<svg width="40" height="37" viewBox="0 0 40 37" fill="none" xmlns="http://www.w3.org/2000/svg">
<path d="M20 0C19.7596 3.25028e-05 19.5215 0.0503235 19.2996 0.147962C19.0777 0.2456 18.8764 0.388646 18.7074 0.56882L0.369318 17.4313C0.254789 17.5204 0.161704 17.6366 0.097557 17.7705C0.0334103 17.9044 -5.46854e-06 18.0523 6.71257e-10 18.2022C6.71258e-10 18.4563 0.0957789 18.7 0.266267 18.8797C0.436754 19.0593 0.667985 19.1603 0.909091 19.1603H6V34.4885C6 35.5461 6.26909 36.4045 7.27273 36.4045H14.5455C15.5491 36.4045 16.3636 35.5461 16.3636 34.4885V23.4433H23.6364V34.4885C23.6364 35.5461 24.4509 36.4045 25.4545 36.4045H32.7273C33.7309 36.4045 34 35.5461 34 34.4885V19.1603H39.0909C39.332 19.1603 39.5632 19.0593 39.7337 18.8797C39.9042 18.7 40 18.4563 40 18.2022C40 18.0523 39.9666 17.9044 39.9024 17.7705C39.8383 17.6366 39.7452 17.5204 39.6307 17.4313L21.3033 0.580047C21.2997 0.576289 21.2962 0.572547 21.2926 0.56882C21.1236 0.388646 20.9223 0.2456 20.7004 0.147962C20.4785 0.0503235 20.2404 3.25028e-05 20 0Z" fill="#A4978B"/>
</svg>
