<svg width="40" height="38" viewBox="0 0 40 38" fill="none" xmlns="http://www.w3.org/2000/svg">
<path d="M36 0.80899H4C1.79 0.80899 0 2.84537 0 5.35955V32.6629C0 35.1771 1.79 37.2135 4 37.2135H36C38.21 37.2135 40 35.1771 40 32.6629V5.35955C40 2.84537 38.21 0.80899 36 0.80899ZM5.5 29.6292L12 16.9888C12.392 16.4154 12.592 16.429 13 16.9888L18 27.1011L25.5 11.9326C25.904 11.3387 26.104 11.3319 26.5 11.9326L35 29.6292C35.494 30.3801 35.324 30.6405 34.5 30.6405H6C5.168 30.6405 4.988 30.3755 5.5 29.6292Z" fill="#A4978B"/>
</svg>
