<svg width="40" height="37" viewBox="0 0 40 37" fill="none" xmlns="http://www.w3.org/2000/svg">
<path d="M27 14.3708C30.0182 14.3708 33.5 11.6087 33.5 7.29215C33.5 2.97562 30.2909 0.213501 27.2727 0.213501C24.2545 0.213501 20.5 2.97562 20.5 7.29215C20.5 11.6087 23.9818 14.3708 27 14.3708ZM12.7273 14.3708C15.7455 14.3708 19 11.6087 19 7.29215C19 2.97562 15.7455 0.213501 12.7273 0.213501C9.70909 0.213501 6 2.97562 6 7.29215C6 11.6087 9.70909 14.3708 12.7273 14.3708ZM12.7273 19.427C8.49091 19.427 0 22.4694 0 28.5281V34.0177C0 35.4478 0.818182 36.618 1.81818 36.618H23.6364C24.6364 36.618 25.4545 35.4478 25.4545 34.0177V28.5281C25.4545 22.4694 16.9636 19.427 12.7273 19.427ZM27 19.427C26.4727 19.427 25.3965 20.3041 25.5 20.9438C25.5818 21.4495 25.5818 21.2501 25.5818 21.2501C25.5818 21.2501 29.0909 26.2947 29.0909 30.1172V34.0177C29.0909 34.9278 28.9636 35.8119 28.7636 36.618H38.1818C39.1818 36.618 40 35.4478 40 34.0177V30.1172C40 24.0584 31.2364 19.427 27 19.427Z" fill="#FFE4CA"/>
</svg>
