<svg width="36" height="36" viewBox="0 0 36 36" fill="none" xmlns="http://www.w3.org/2000/svg">
<path d="M23.3699 18C23.3699 20.97 20.9699 23.37 17.9999 23.37C15.0299 23.37 12.6299 20.97 12.6299 18C12.6299 15.03 15.0299 12.63 17.9999 12.63C20.9699 12.63 23.3699 15.03 23.3699 18Z" stroke="black" stroke-width="1.5" stroke-linecap="round" stroke-linejoin="round"/>
<path d="M18 30.405C23.295 30.405 28.23 27.285 31.665 21.885C33.015 19.77 33.015 16.215 31.665 14.1C28.23 8.69999 23.295 5.57999 18 5.57999C12.705 5.57999 7.77001 8.69999 4.33501 14.1C2.98501 16.215 2.98501 19.77 4.33501 21.885C7.77001 27.285 12.705 30.405 18 30.405Z" stroke="black" stroke-width="1.5" stroke-linecap="round" stroke-linejoin="round"/>
</svg>
