<svg width="40" height="41" viewBox="0 0 40 41" fill="none" xmlns="http://www.w3.org/2000/svg">
<path d="M20 0.617981C16.0444 0.617981 12.1776 1.79096 8.8886 3.98859C5.59962 6.18622 3.03617 9.30979 1.52242 12.9643C0.00866556 16.6188 -0.387401 20.6402 0.384303 24.5198C1.15601 28.3994 3.06082 31.9631 5.85787 34.7601C8.65492 37.5572 12.2186 39.462 16.0982 40.2337C19.9778 41.0054 23.9992 40.6093 27.6537 39.0956C31.3082 37.5818 34.4318 35.0184 36.6294 31.7294C38.827 28.4404 40 24.5736 40 20.618C40 17.9915 39.4827 15.3908 38.4776 12.9643C37.4725 10.5378 35.9993 8.33301 34.1421 6.47584C32.285 4.61867 30.0802 3.14548 27.6537 2.14039C25.2272 1.1353 22.6264 0.617981 20 0.617981ZM20 32.618C19.6044 32.618 19.2178 32.5007 18.8889 32.2809C18.56 32.0612 18.3036 31.7488 18.1522 31.3833C18.0009 31.0179 17.9613 30.6158 18.0384 30.2278C18.1156 29.8398 18.3061 29.4835 18.5858 29.2038C18.8655 28.9241 19.2219 28.7336 19.6098 28.6564C19.9978 28.5792 20.3999 28.6188 20.7654 28.7702C21.1308 28.9216 21.4432 29.1779 21.6629 29.5068C21.8827 29.8357 22 30.2224 22 30.618C22 31.1484 21.7893 31.6571 21.4142 32.0322C21.0391 32.4073 20.5304 32.618 20 32.618ZM22 22.298V24.618C22 25.1484 21.7893 25.6571 21.4142 26.0322C21.0391 26.4073 20.5304 26.618 20 26.618C19.4696 26.618 18.9609 26.4073 18.5858 26.0322C18.2107 25.6571 18 25.1484 18 24.618V20.618C18 20.0875 18.2107 19.5788 18.5858 19.2038C18.9609 18.8287 19.4696 18.618 20 18.618C20.5933 18.618 21.1734 18.442 21.6667 18.1124C22.1601 17.7827 22.5446 17.3142 22.7716 16.766C22.9987 16.2178 23.0581 15.6146 22.9424 15.0327C22.8266 14.4508 22.5409 13.9162 22.1213 13.4967C21.7018 13.0771 21.1672 12.7914 20.5853 12.6756C20.0033 12.5599 19.4001 12.6193 18.852 12.8463C18.3038 13.0734 17.8352 13.4579 17.5056 13.9513C17.176 14.4446 17 15.0246 17 15.618C17 16.1484 16.7893 16.6571 16.4142 17.0322C16.0391 17.4073 15.5304 17.618 15 17.618C14.4696 17.618 13.9609 17.4073 13.5858 17.0322C13.2107 16.6571 13 16.1484 13 15.618C12.9948 14.3186 13.3513 13.0434 14.0297 11.9351C14.7082 10.8269 15.6816 9.92934 16.8412 9.34299C18.0008 8.75664 19.3007 8.50463 20.5954 8.61517C21.8901 8.72571 23.1285 9.19444 24.1719 9.96888C25.2153 10.7433 26.0226 11.7929 26.5033 13.0001C26.984 14.2073 27.1192 15.5245 26.8938 16.8042C26.6684 18.0839 26.0912 19.2756 25.2269 20.2459C24.3626 21.2162 23.2452 21.9267 22 22.298Z" fill="#FFE4CA"/>
</svg>
