<svg width="46" height="48" viewBox="0 0 46 48" fill="none" xmlns="http://www.w3.org/2000/svg">
<path d="M11.0908 12.7273H35.0908" stroke="black" stroke-width="1.4" stroke-linecap="round" stroke-linejoin="round"/>
<path d="M10 41.0909V36.7273C10 33.2553 11.3792 29.9256 13.8342 27.4706C16.2893 25.0156 19.619 23.6364 23.0909 23.6364C26.5628 23.6364 29.8926 25.0156 32.3476 27.4706C34.8026 29.9256 36.1818 33.2553 36.1818 36.7273V41.0909C36.1818 41.6696 35.952 42.2245 35.5428 42.6337C35.1336 43.0428 34.5787 43.2727 34 43.2727H12.1818C11.6032 43.2727 11.0482 43.0428 10.639 42.6337C10.2299 42.2245 10 41.6696 10 41.0909Z" stroke="black" stroke-width="1.4" stroke-linecap="round" stroke-linejoin="round"/>
<path d="M10 6.18182V10.5455C10 14.0174 11.3792 17.3471 13.8342 19.8021C16.2893 22.2571 19.619 23.6364 23.0909 23.6364C26.5628 23.6364 29.8926 22.2571 32.3476 19.8021C34.8026 17.3471 36.1818 14.0174 36.1818 10.5455V6.18182C36.1818 5.60316 35.952 5.04821 35.5428 4.63904C35.1336 4.22987 34.5787 4 34 4H12.1818C11.6032 4 11.0482 4.22987 10.639 4.63904C10.2299 5.04821 10 5.60316 10 6.18182Z" stroke="black" stroke-width="1.4" stroke-linecap="round" stroke-linejoin="round"/>
</svg>
