<svg width="36" height="36" viewBox="0 0 36 36" fill="none" xmlns="http://www.w3.org/2000/svg">
<path d="M33.9751 31.7611L23.5408 21.3268C25.16 19.2335 26.0359 16.6741 26.0359 13.9821C26.0359 10.7598 24.7783 7.73838 22.5042 5.46025C20.23 3.18213 17.2006 1.92856 13.9823 1.92856C10.764 1.92856 7.73451 3.18615 5.46041 5.46025C3.18228 7.73436 1.92871 10.7598 1.92871 13.9821C1.92871 17.2004 3.1863 20.2299 5.46041 22.504C7.73451 24.7821 10.76 26.0357 13.9823 26.0357C16.6742 26.0357 19.2296 25.1598 21.3229 23.5446L31.7573 33.975C31.7879 34.0056 31.8242 34.0299 31.8642 34.0465C31.9042 34.063 31.947 34.0716 31.9903 34.0716C32.0336 34.0716 32.0765 34.063 32.1164 34.0465C32.1564 34.0299 32.1928 34.0056 32.2234 33.975L33.9751 32.2272C34.0058 32.1966 34.03 32.1603 34.0466 32.1203C34.0632 32.0803 34.0717 32.0375 34.0717 31.9942C34.0717 31.9509 34.0632 31.908 34.0466 31.8681C34.03 31.8281 34.0058 31.7917 33.9751 31.7611V31.7611ZM20.3466 20.3464C18.643 22.046 16.385 22.9821 13.9823 22.9821C11.5796 22.9821 9.32157 22.046 7.618 20.3464C5.91844 18.6428 4.98228 16.3848 4.98228 13.9821C4.98228 11.5795 5.91844 9.3174 7.618 7.61784C9.32157 5.91829 11.5796 4.98213 13.9823 4.98213C16.385 4.98213 18.647 5.91427 20.3466 7.61784C22.0461 9.32142 22.9823 11.5795 22.9823 13.9821C22.9823 16.3848 22.0461 18.6469 20.3466 20.3464Z" fill="#9C9A9A"/>
</svg>
