<svg width="48" height="48" viewBox="0 0 48 48" fill="none" xmlns="http://www.w3.org/2000/svg">
<path d="M27.4601 7.02003L30.9801 14.06C31.4601 15.04 32.7401 15.98 33.8201 16.16L40.2001 17.22C44.2801 17.9 45.2401 20.86 42.3001 23.78L37.3401 28.74C36.5001 29.58 36.0401 31.2 36.3001 32.36L37.7201 38.5C38.8401 43.36 36.2601 45.24 31.9601 42.7L25.9801 39.16C24.9001 38.52 23.1201 38.52 22.0201 39.16L16.0401 42.7C11.7601 45.24 9.16006 43.34 10.2801 38.5L11.7001 32.36C11.9601 31.2 11.5001 29.58 10.6601 28.74L5.70006 23.78C2.78006 20.86 3.72006 17.9 7.80006 17.22L14.1801 16.16C15.2401 15.98 16.5201 15.04 17.0001 14.06L20.5201 7.02003C22.4401 3.20003 25.5601 3.20003 27.4601 7.02003V7.02003Z" stroke="black" stroke-width="1.5" stroke-linecap="round" stroke-linejoin="round"/>
</svg>
