<svg width="40" height="41" viewBox="0 0 40 41" fill="none" xmlns="http://www.w3.org/2000/svg">
<path d="M20 0C8.96 0 0 9.06067 0 20.2247C0 31.3888 8.96 40.4494 20 40.4494C31.04 40.4494 40 31.3888 40 20.2247C40 9.06067 31.04 0 20 0ZM20 6.06742C23.32 6.06742 26 8.77753 26 12.1348C26 15.4921 23.32 18.2022 20 18.2022C16.68 18.2022 14 15.4921 14 12.1348C14 8.77753 16.68 6.06742 20 6.06742ZM20 34.7865C15 34.7865 10.58 32.1978 8 28.2742C8.06 24.2494 16 22.0449 20 22.0449C23.98 22.0449 31.94 24.2494 32 28.2742C29.42 32.1978 25 34.7865 20 34.7865Z" fill="#4A4041"/>
</svg>
