<svg width="48" height="48" viewBox="0 0 48 48" fill="none" xmlns="http://www.w3.org/2000/svg">
<path d="M26.5199 7.20001L10.0999 24.58C9.47995 25.24 8.87995 26.54 8.75995 27.44L8.01995 33.92C7.75995 36.26 9.43995 37.86 11.7599 37.46L18.1999 36.36C19.0999 36.2 20.3599 35.54 20.9799 34.86L37.3999 17.48C40.2399 14.48 41.5199 11.06 37.0999 6.88001C32.6999 2.74001 29.3599 4.20001 26.5199 7.20001V7.20001Z" stroke="black" stroke-width="1.5" stroke-miterlimit="10" stroke-linecap="round" stroke-linejoin="round"/>
<path d="M23.78 10.1C24.1993 12.7817 25.4972 15.2482 27.47 17.1125C29.4428 18.9767 31.9789 20.133 34.68 20.4M6 44H42" stroke="black" stroke-width="1.5" stroke-miterlimit="10" stroke-linecap="round" stroke-linejoin="round"/>
</svg>
